<svg width="24" height="20" viewBox="0 0 24 20" fill="none" xmlns="http://www.w3.org/2000/svg">
<path d="M21.3334 9.99996V4.16663H23.6667V11.1666H21.3334M21.3334 15.8333H23.6667V13.5H21.3334M9.66671 11.1666C12.7817 11.1666 19 12.73 19 15.8333V19.3333H0.333374V15.8333C0.333374 12.73 6.55171 11.1666 9.66671 11.1666ZM9.66671 0.666626C10.9044 0.666626 12.0914 1.15829 12.9665 2.03346C13.8417 2.90863 14.3334 4.09562 14.3334 5.33329C14.3334 6.57097 13.8417 7.75795 12.9665 8.63312C12.0914 9.50829 10.9044 9.99996 9.66671 9.99996C8.42903 9.99996 7.24205 9.50829 6.36688 8.63312C5.49171 7.75795 5.00004 6.57097 5.00004 5.33329C5.00004 4.09562 5.49171 2.90863 6.36688 2.03346C7.24205 1.15829 8.42903 0.666626 9.66671 0.666626ZM9.66671 13.3833C6.20171 13.3833 2.55004 15.0866 2.55004 15.8333V17.1166H16.7834V15.8333C16.7834 15.0866 13.1317 13.3833 9.66671 13.3833ZM9.66671 2.88329C9.01693 2.88329 8.39376 3.14142 7.9343 3.60088C7.47483 4.06034 7.21671 4.68351 7.21671 5.33329C7.21671 5.98307 7.47483 6.60624 7.9343 7.0657C8.39376 7.52517 9.01693 7.78329 9.66671 7.78329C10.3165 7.78329 10.9397 7.52517 11.3991 7.0657C11.8586 6.60624 12.1167 5.98307 12.1167 5.33329C12.1167 4.68351 11.8586 4.06034 11.3991 3.60088C10.9397 3.14142 10.3165 2.88329 9.66671 2.88329Z" fill="black"/>
</svg>
